<svg width="34" height="18" viewBox="0 0 34 18" fill="none" xmlns="http://www.w3.org/2000/svg">
<path fill-rule="evenodd" clip-rule="evenodd" d="M29.7023 8.63206H29.3538H24.0638V12.0717H28.6568C27.2181 13.9237 24.5016 14.8663 21.6958 13.7997C20.4448 13.3202 19.435 12.4024 18.9078 11.2448C17.1921 7.43316 20.1678 3.77859 24.0638 3.77859C24.2425 3.77859 24.4212 3.78686 24.5999 3.8034C24.6357 3.8034 24.6714 3.81167 24.7071 3.81167C24.7429 3.81167 24.7697 3.81994 24.8054 3.81994C24.8412 3.8282 24.8769 3.8282 24.9127 3.83647C24.9484 3.84474 24.9752 3.84474 25.011 3.85301C25.0467 3.86128 25.0825 3.86128 25.1182 3.86955C25.1539 3.87781 25.1807 3.87781 25.2076 3.88608C25.2433 3.89435 25.279 3.90262 25.3148 3.90262C25.3416 3.91089 25.3773 3.91915 25.4041 3.91915C25.4399 3.92742 25.4756 3.93569 25.5024 3.94396C25.5292 3.95223 25.565 3.9605 25.5918 3.96876C25.6275 3.97703 25.6543 3.9853 25.6901 3.99357C25.7169 4.00184 25.7526 4.01011 25.7794 4.01837C25.8152 4.02664 25.842 4.03491 25.8777 4.05145C25.9045 4.05972 25.9403 4.06798 25.9671 4.07625C26.0028 4.08452 26.0296 4.10106 26.0654 4.10932C26.0922 4.11759 26.1279 4.13413 26.1548 4.1424C26.1905 4.15067 26.2173 4.1672 26.253 4.17547C26.2799 4.18374 26.3156 4.20028 26.3424 4.20854C26.3692 4.22508 26.405 4.23335 26.4318 4.24989C26.4586 4.25815 26.4854 4.27469 26.5211 4.28296C26.5479 4.29949 26.5837 4.30776 26.6105 4.3243C26.6373 4.34084 26.6641 4.3491 26.6909 4.36564C26.7177 4.38218 26.7535 4.39871 26.7803 4.40698C26.8071 4.42352 26.8339 4.43179 26.8607 4.44832C26.8875 4.46486 26.9232 4.4814 26.95 4.49793C26.9768 4.51447 27.0037 4.53101 27.0305 4.53927C27.3253 4.70464 27.5934 4.89481 27.8526 5.10978L30.721 2.45567C30.3635 2.14148 29.9793 1.86036 29.5772 1.59577C29.5593 1.57924 29.5325 1.57097 29.5057 1.55443C29.4431 1.51309 29.3806 1.47175 29.3091 1.43868C29.2734 1.41387 29.2376 1.39734 29.1929 1.37253C29.1304 1.33119 29.0589 1.29812 28.9963 1.25678C28.9606 1.24024 28.9249 1.21543 28.8802 1.1989C28.8087 1.16582 28.7461 1.12448 28.6747 1.09141C28.6389 1.07487 28.6032 1.05834 28.5674 1.0418C28.4959 1.00873 28.4244 0.967386 28.353 0.934313C28.3172 0.917777 28.2904 0.90124 28.2547 0.892972C28.1742 0.859899 28.0938 0.826826 28.0223 0.793753C27.8168 0.71107 27.6292 0.636656 27.4415 0.57051C27.4147 0.562242 27.379 0.545705 27.3522 0.537437C27.2896 0.512632 27.2181 0.496096 27.1466 0.471291C27.093 0.454754 27.0394 0.438218 26.9858 0.421681C26.9232 0.405145 26.8607 0.388608 26.7981 0.372072C26.7356 0.355535 26.682 0.338999 26.6194 0.322462C26.5569 0.305926 26.4943 0.289389 26.4318 0.281121C26.3692 0.264584 26.3067 0.248048 26.2441 0.23978C26.1816 0.223243 26.119 0.214975 26.0654 0.206706C26.0028 0.19017 25.9314 0.181902 25.8688 0.173633C25.8063 0.165365 25.7526 0.157097 25.6901 0.14056C25.6186 0.132292 25.5561 0.115756 25.4846 0.107487C25.422 0.0992191 25.3684 0.0909509 25.3058 0.0826826C25.2344 0.0744143 25.1629 0.0661461 25.1003 0.0578778C25.0378 0.0496096 24.9842 0.0496096 24.9216 0.0413413C24.8501 0.033073 24.7786 0.033073 24.7071 0.0248048C24.6714 0.0248048 24.6357 0.0165365 24.5999 0.0165365C24.3944 0.00826826 24.2246 0 24.0548 0C17.5317 0 12.5008 5.95315 14.985 12.3197C15.9232 14.734 18.0231 16.6109 20.6413 17.446C26.2352 19.2154 31.4984 16.4125 33.1962 12.0386C33.5536 11.1208 33.4821 10.7239 33.5 9.69867V9.08682V8.63206L29.7023 8.63206ZM12.9476 9.3266H12.4383H11.7502H10.66H10.1507H8.93542H7.48781H6.97847V9.79789V11.5838V12.0551H7.48781H8.93542H9.5788H10.1418C10.1418 12.1378 10.1328 12.2122 10.1239 12.2949C10.1149 12.3941 10.0971 12.4851 10.0792 12.576C10.0792 12.5926 10.0703 12.6174 10.0703 12.6339C10.0703 12.6422 10.0613 12.6587 10.0613 12.667C10.0524 12.7 10.0435 12.7331 10.0345 12.7662C10.0345 12.7827 10.0256 12.7993 10.0167 12.8075C10.0077 12.8406 9.99878 12.8654 9.98984 12.8985C9.98091 12.915 9.98091 12.9316 9.97197 12.9398C9.96304 12.9646 9.9541 12.9977 9.93623 13.0225C9.92729 13.039 9.92729 13.0473 9.91836 13.0638C9.90942 13.0887 9.89155 13.1217 9.88262 13.1465C9.87368 13.1631 9.87368 13.1713 9.86474 13.1879C9.84687 13.2209 9.829 13.254 9.82006 13.2788C9.81113 13.2871 9.81113 13.2954 9.81113 13.3036C9.74858 13.4277 9.66816 13.5434 9.58773 13.6592C9.58773 13.6592 9.58773 13.6592 9.58773 13.6674C9.56093 13.7005 9.53412 13.7418 9.50731 13.7749L9.49838 13.7832C9.47157 13.8163 9.44476 13.8493 9.40902 13.8824L9.40008 13.8907C9.37327 13.9237 9.33753 13.9568 9.30179 13.9899C8.72096 14.5687 7.88993 14.9325 6.97847 14.9325C5.23599 14.9325 3.80625 13.6096 3.80625 11.9972V8.35921C3.80625 6.75517 5.23599 5.43225 6.97847 5.43225C7.12145 5.43225 7.27335 5.44051 7.41633 5.45705C7.4342 5.45705 7.45207 5.46532 7.46994 5.46532C7.50569 5.47359 7.53249 5.47359 7.56824 5.48186C7.57717 5.48186 7.58611 5.48186 7.59504 5.49012C8.14907 5.58934 8.64947 5.82912 9.06945 6.15985C9.12307 6.20946 9.17668 6.2508 9.2303 6.30041C9.24817 6.31695 9.26604 6.33349 9.28391 6.35002C9.43582 6.49885 9.5788 6.66422 9.69496 6.83785L10.106 6.45751L11.7234 4.96096L12.0451 4.6633C11.9557 4.53927 11.8485 4.42352 11.7413 4.31603C11.7055 4.28296 11.6787 4.24989 11.643 4.21681C11.6251 4.20028 11.6072 4.18374 11.5894 4.1672C11.5357 4.11759 11.4821 4.06798 11.4285 4.01837C11.4017 3.99357 11.3838 3.97703 11.357 3.9605C11.3123 3.92742 11.2766 3.89435 11.2319 3.85301C11.1962 3.81994 11.1604 3.79513 11.1247 3.77033C11.08 3.73725 11.0353 3.70418 10.9996 3.67111C10.9638 3.6463 10.9192 3.61323 10.8834 3.58842C10.8387 3.55535 10.7941 3.52228 10.7494 3.49747C10.7136 3.47267 10.669 3.44786 10.6332 3.42306L10.6243 3.41479C10.5528 3.36518 10.4813 3.32384 10.4009 3.2825L10.392 3.27423C10.3473 3.24943 10.2937 3.21635 10.249 3.19155C10.2043 3.16674 10.1596 3.15021 10.1149 3.1254C10.0703 3.1006 10.0167 3.07579 9.97197 3.05099C9.92729 3.02618 9.88262 3.00965 9.83794 2.98484C9.78432 2.96004 9.73964 2.9435 9.68603 2.9187C9.64135 2.90216 9.59667 2.87735 9.55199 2.86082C9.49837 2.84428 9.4537 2.81948 9.40008 2.80294C9.3554 2.7864 9.31072 2.76987 9.25711 2.75333C9.20349 2.73679 9.14988 2.72026 9.09626 2.70372C9.05158 2.68718 8.99797 2.67065 8.95329 2.66238C8.89967 2.64584 8.84606 2.62931 8.78351 2.61277C8.73883 2.59623 8.68522 2.58797 8.64054 2.5797C8.58692 2.56316 8.52437 2.55489 8.47076 2.53836C8.42608 2.53009 8.37246 2.52182 8.32778 2.50528C8.26523 2.49701 8.20268 2.48048 8.14907 2.47221C8.10439 2.46394 8.05971 2.45567 8.01503 2.4474C7.95248 2.43914 7.88993 2.43087 7.81844 2.4226C7.77376 2.41433 7.72908 2.41433 7.6844 2.40606C7.61292 2.3978 7.54143 2.3978 7.46101 2.38953C7.42526 2.38953 7.38952 2.38126 7.35378 2.38126C7.20187 2.38126 7.09464 2.37299 6.97847 2.37299C3.41308 2.37299 0.5 5.07671 0.5 8.36748V12.0055C0.5 15.3045 3.41308 18 6.97847 18H7.48781C10.7762 18 13.4569 15.5113 13.4569 12.4768V12.0055V10.3105V9.96325V9.79789V9.3266H12.9476Z" fill="white"/>
</svg>
