<svg width="14" height="14" viewBox="0 0 14 14" fill="none" xmlns="http://www.w3.org/2000/svg">
<path fill-rule="evenodd" clip-rule="evenodd" d="M12.2974 0.00112576L12.2991 0.00219692L13.9988 1.68731L14 1.68873V1.68981L13.9988 1.69141L8.17305 6.82811L13.9988 11.9648L14 11.9664V11.9677L13.9988 11.9691L11.9077 13.9989L11.9063 14H11.9049L11.9031 13.9989L7 7.86242L2.09351 13.827L1.17244 13.0002H1.17102L1.1694 12.9991L0.00121491 11.9689L0 11.9677V11.9664L0.00121491 11.9648L5.82696 6.82811L0.00121491 1.69141L0 1.68981V1.68856L0.00121491 1.68713L1.70205 0.00107123L1.70347 0H1.70489L1.70671 0.00107123L7 5.79381L12.2942 0.00219692L12.296 0.00112576H12.2974Z"/>
</svg>
