<svg width="12" height="10" viewBox="0 0 12 10" fill="none" xmlns="http://www.w3.org/2000/svg">
<path d="M11.7617 4.65448C10.492 1.97992 8.57285 0.633942 6.00008 0.633942C3.42597 0.633942 1.50811 1.97992 0.23847 4.65582C0.187544 4.76365 0.161133 4.88143 0.161133 5.00068C0.161133 5.11994 0.187544 5.23771 0.23847 5.34555C1.50811 8.0201 3.42731 9.36609 6.00008 9.36609C8.57418 9.36609 10.492 8.0201 11.7617 5.34421C11.8648 5.12725 11.8648 4.87546 11.7617 4.65448ZM6.00008 8.4018C3.83981 8.4018 2.25811 7.30626 1.14249 5.00001C2.25811 2.69376 3.83981 1.59823 6.00008 1.59823C8.16035 1.59823 9.74204 2.69376 10.8577 5.00001C9.74338 7.30626 8.16168 8.4018 6.00008 8.4018ZM5.94651 2.64287C4.64472 2.64287 3.58936 3.69823 3.58936 5.00001C3.58936 6.3018 4.64472 7.35716 5.94651 7.35716C7.24829 7.35716 8.30365 6.3018 8.30365 5.00001C8.30365 3.69823 7.24829 2.64287 5.94651 2.64287ZM5.94651 6.50001C5.11749 6.50001 4.44651 5.82903 4.44651 5.00001C4.44651 4.171 5.11749 3.50001 5.94651 3.50001C6.77552 3.50001 7.44651 4.171 7.44651 5.00001C7.44651 5.82903 6.77552 6.50001 5.94651 6.50001Z" />
</svg>
