<svg width="12" height="12" viewBox="0 0 12 12" fill="none" xmlns="http://www.w3.org/2000/svg">
<path d="M11.5287 7.52282L10.6514 6.77282C10.693 6.51836 10.7144 6.25854 10.7144 5.99872C10.7144 5.73889 10.693 5.47907 10.6514 5.22461L11.5287 4.47461C11.5948 4.41797 11.6422 4.34252 11.6644 4.25831C11.6867 4.1741 11.6828 4.08511 11.6532 4.00318L11.6412 3.96836C11.3997 3.29339 11.038 2.66769 10.5738 2.12148L10.5497 2.09336C10.4933 2.02713 10.4183 1.97953 10.3343 1.95682C10.2504 1.9341 10.1616 1.93735 10.0796 1.96613L8.99073 2.35318C8.58894 2.02372 8.14028 1.7639 7.65546 1.58175L7.44519 0.443359C7.42933 0.357702 7.38777 0.278898 7.32606 0.217419C7.26434 0.155939 7.18537 0.114694 7.09965 0.0991629L7.06349 0.0924665C6.36573 -0.0334263 5.6318 -0.0334263 4.93403 0.0924665L4.89787 0.0991629C4.81215 0.114694 4.73319 0.155939 4.67147 0.217419C4.60975 0.278898 4.5682 0.357702 4.55233 0.443359L4.34073 1.58711C3.85977 1.76929 3.41189 2.02897 3.01483 2.35586L1.91796 1.96613C1.83595 1.93712 1.74705 1.93376 1.66308 1.95648C1.57912 1.97921 1.50405 2.02695 1.44787 2.09336L1.42376 2.12148C0.960029 2.66808 0.598461 3.29368 0.35635 3.96836L0.344297 4.00318C0.284029 4.17059 0.333583 4.35809 0.46885 4.47461L1.3568 5.23265C1.31528 5.48443 1.29519 5.74157 1.29519 5.99738C1.29519 6.25452 1.31528 6.51166 1.3568 6.76211L0.46885 7.52015C0.402684 7.57679 0.355328 7.65223 0.333079 7.73644C0.31083 7.82065 0.314743 7.90964 0.344297 7.99157L0.35635 8.0264C0.598761 8.7014 0.95769 9.32416 1.42376 9.87327L1.44787 9.9014C1.50419 9.96762 1.57926 10.0152 1.66317 10.0379C1.74709 10.0607 1.83592 10.0574 1.91796 10.0286L3.01483 9.6389C3.41394 9.96702 3.85992 10.2268 4.34073 10.4076L4.55233 11.5514C4.5682 11.6371 4.60975 11.7159 4.67147 11.7773C4.73319 11.8388 4.81215 11.8801 4.89787 11.8956L4.93403 11.9023C5.63821 12.0289 6.35931 12.0289 7.06349 11.9023L7.09965 11.8956C7.18537 11.8801 7.26434 11.8388 7.32606 11.7773C7.38777 11.7159 7.42933 11.6371 7.44519 11.5514L7.65546 10.413C8.14008 10.2313 8.59128 9.97067 8.99073 9.64157L10.0796 10.0286C10.1616 10.0576 10.2505 10.061 10.3344 10.0383C10.4184 10.0155 10.4935 9.9678 10.5497 9.9014L10.5738 9.87327C11.0398 9.32282 11.3988 8.7014 11.6412 8.0264L11.6532 7.99157C11.7135 7.82684 11.6639 7.63934 11.5287 7.52282ZM9.70055 5.38264C9.73403 5.58488 9.75144 5.79247 9.75144 6.00006C9.75144 6.20765 9.73403 6.41523 9.70055 6.61747L9.61215 7.15452L10.6126 8.01032C10.4609 8.35973 10.2695 8.69048 10.0421 8.99604L8.79921 8.55541L8.37867 8.90095C8.05858 9.16345 7.70233 9.3697 7.31662 9.51434L6.80635 9.70586L6.56662 11.005C6.18836 11.0478 5.80648 11.0478 5.42823 11.005L5.18849 9.70318L4.68224 9.50898C4.30055 9.36434 3.94564 9.15809 3.62823 8.89693L3.20769 8.55006L1.9568 8.9947C1.72912 8.688 1.53894 8.3572 1.38626 8.00898L2.39742 7.14515L2.31037 6.60943C2.27823 6.40988 2.26081 6.20363 2.26081 6.00006C2.26081 5.79515 2.27689 5.59023 2.31037 5.39068L2.39742 4.85497L1.38626 3.99113C1.5376 3.64157 1.72912 3.31211 1.9568 3.00541L3.20769 3.45006L3.62823 3.10318C3.94564 2.84202 4.30055 2.63577 4.68224 2.49113L5.18983 2.29961L5.42956 0.997824C5.8059 0.954967 6.19028 0.954967 6.56796 0.997824L6.80769 2.29693L7.31796 2.48845C7.70233 2.63309 8.05992 2.83934 8.38001 3.10184L8.80055 3.44738L10.0434 3.00675C10.2711 3.31345 10.4613 3.64425 10.6139 3.99247L9.61349 4.84827L9.70055 5.38264ZM6.0001 3.50898C4.69831 3.50898 3.64296 4.56434 3.64296 5.86613C3.64296 7.16791 4.69831 8.22327 6.0001 8.22327C7.30189 8.22327 8.35724 7.16791 8.35724 5.86613C8.35724 4.56434 7.30189 3.50898 6.0001 3.50898ZM7.06082 6.92684C6.92169 7.06636 6.75636 7.177 6.57432 7.25239C6.39228 7.32778 6.19713 7.36643 6.0001 7.36613C5.59965 7.36613 5.22331 7.20943 4.93939 6.92684C4.79986 6.78772 4.68923 6.62238 4.61384 6.44035C4.53845 6.25831 4.49979 6.06316 4.5001 5.86613C4.5001 5.46568 4.6568 5.08934 4.93939 4.80541C5.22331 4.52148 5.59965 4.36613 6.0001 4.36613C6.40055 4.36613 6.77689 4.52148 7.06082 4.80541C7.20034 4.94454 7.31098 5.10987 7.38637 5.29191C7.46175 5.47395 7.50041 5.6691 7.5001 5.86613C7.5001 6.26657 7.3434 6.64291 7.06082 6.92684Z" />
</svg>
