<svg width="10" height="10" viewBox="0 0 10 10" fill="none" xmlns="http://www.w3.org/2000/svg">
<path d="M2.02686 1.30888L2.61481 0.720931C2.62897 0.706698 2.63885 0.688778 2.64333 0.669206C2.64781 0.649635 2.64671 0.629199 2.64016 0.610222C2.6336 0.591245 2.62185 0.57449 2.60624 0.561862C2.59063 0.549233 2.57179 0.541239 2.55186 0.538788L0.406324 0.285663C0.33802 0.277627 0.279092 0.335216 0.287128 0.404859L0.540253 2.5504C0.550967 2.63879 0.659449 2.67629 0.722396 2.61334L1.30766 2.02807L3.09829 3.81736C3.13981 3.85888 3.20811 3.85888 3.24963 3.81736L3.81749 3.25084C3.859 3.20932 3.859 3.14102 3.81749 3.0995L2.02686 1.30888ZM6.75052 3.81736C6.79204 3.85888 6.86034 3.85888 6.90186 3.81736L8.69249 2.02807L9.27775 2.61334C9.29199 2.6275 9.30991 2.63739 9.32948 2.64187C9.34905 2.64635 9.36949 2.64525 9.38846 2.63869C9.40744 2.63213 9.42419 2.62038 9.43682 2.60477C9.44945 2.58916 9.45745 2.57032 9.4599 2.5504L9.71302 0.406199C9.72106 0.337895 9.66347 0.278967 9.59382 0.287002L7.44829 0.540127C7.3599 0.550841 7.3224 0.659324 7.38534 0.72227L7.97329 1.31022L6.18266 3.09816C6.16272 3.1183 6.15154 3.14549 6.15154 3.17383C6.15154 3.20217 6.16272 3.22936 6.18266 3.2495L6.75052 3.81736ZM9.4599 7.4495C9.44918 7.36111 9.3407 7.32361 9.27775 7.38656L8.69249 7.97182L6.90186 6.18254C6.88172 6.1626 6.85453 6.15141 6.82619 6.15141C6.79785 6.15141 6.77066 6.1626 6.75052 6.18254L6.18266 6.74906C6.16272 6.76919 6.15154 6.79639 6.15154 6.82473C6.15154 6.85306 6.16272 6.88026 6.18266 6.90039L7.97329 8.69102L7.38534 9.27897C7.37118 9.2932 7.3613 9.31112 7.35682 9.33069C7.35233 9.35026 7.35343 9.3707 7.35999 9.38967C7.36655 9.40865 7.3783 9.42541 7.39391 9.43803C7.40952 9.45066 7.42836 9.45866 7.44829 9.46111L9.59382 9.71423C9.66213 9.72227 9.72106 9.66468 9.71302 9.59504L9.4599 7.4495ZM3.24963 6.18254C3.22949 6.1626 3.2023 6.15141 3.17396 6.15141C3.14562 6.15141 3.11843 6.1626 3.09829 6.18254L1.30766 7.97182L0.722396 7.38656C0.708163 7.37239 0.690242 7.36251 0.670671 7.35803C0.6511 7.35355 0.630664 7.35465 0.611687 7.36121C0.59271 7.36776 0.575955 7.37952 0.563327 7.39512C0.550698 7.41073 0.542704 7.42957 0.540253 7.4495L0.287128 9.5937C0.279092 9.662 0.336681 9.72093 0.406324 9.71289L2.55186 9.45977C2.64025 9.44905 2.67775 9.34057 2.61481 9.27763L2.02686 8.69102L3.81749 6.90173C3.859 6.86022 3.859 6.79191 3.81749 6.75039L3.24963 6.18254Z" />
</svg>
