<svg width="12" height="12" viewBox="0 0 12 12" fill="none" xmlns="http://www.w3.org/2000/svg">
<path d="M5.35722 6C5.35722 6.1705 5.42495 6.33401 5.54551 6.45457C5.66607 6.57513 5.82958 6.64286 6.00008 6.64286C6.17057 6.64286 6.33409 6.57513 6.45464 6.45457C6.5752 6.33401 6.64293 6.1705 6.64293 6C6.64293 5.8295 6.5752 5.66599 6.45464 5.54543C6.33409 5.42487 6.17057 5.35714 6.00008 5.35714C5.82958 5.35714 5.66607 5.42487 5.54551 5.54543C5.42495 5.66599 5.35722 5.8295 5.35722 6ZM8.03579 6C8.03579 6.1705 8.10352 6.33401 8.22408 6.45457C8.34464 6.57513 8.50815 6.64286 8.67865 6.64286C8.84914 6.64286 9.01266 6.57513 9.13322 6.45457C9.25377 6.33401 9.3215 6.1705 9.3215 6C9.3215 5.8295 9.25377 5.66599 9.13322 5.54543C9.01266 5.42487 8.84914 5.35714 8.67865 5.35714C8.50815 5.35714 8.34464 5.42487 8.22408 5.54543C8.10352 5.66599 8.03579 5.8295 8.03579 6ZM2.67865 6C2.67865 6.1705 2.74638 6.33401 2.86694 6.45457C2.98749 6.57513 3.15101 6.64286 3.3215 6.64286C3.492 6.64286 3.65551 6.57513 3.77607 6.45457C3.89663 6.33401 3.96436 6.1705 3.96436 6C3.96436 5.8295 3.89663 5.66599 3.77607 5.54543C3.65551 5.42487 3.492 5.35714 3.3215 5.35714C3.15101 5.35714 2.98749 5.42487 2.86694 5.54543C2.74638 5.66599 2.67865 5.8295 2.67865 6ZM11.534 3.675C11.2313 2.9558 10.7974 2.31027 10.2443 1.7558C9.69502 1.20455 9.04298 0.766368 8.32508 0.466071C7.58847 0.156696 6.80633 0 6.00008 0H5.97329C5.16168 0.00401786 4.37552 0.164732 3.63624 0.480804C2.92448 0.78418 2.27855 1.22314 1.73445 1.77321C1.18668 2.32634 0.756772 2.9692 0.459451 3.68571C0.151415 4.42768 -0.00394188 5.21652 7.59813e-05 6.02812C0.00462051 6.95822 0.224663 7.87461 0.642933 8.70536V10.7411C0.642933 10.9045 0.70784 11.0612 0.823376 11.1767C0.938912 11.2922 1.09561 11.3571 1.259 11.3571H3.29606C4.12681 11.7754 5.0432 11.9955 5.97329 12H6.00142C6.80365 12 7.58177 11.8446 8.31436 11.5406C9.02864 11.2439 9.67825 10.8108 10.2269 10.2656C10.78 9.71786 11.2153 9.07768 11.5193 8.36384C11.8353 7.62455 11.9961 6.83839 12.0001 6.02679C12.0041 5.21116 11.8461 4.41964 11.534 3.675ZM9.51034 9.54107C8.5715 10.4705 7.32597 10.9821 6.00008 10.9821H5.97731C5.16972 10.9781 4.36749 10.7772 3.659 10.3996L3.5465 10.3393H1.66079V8.45357L1.60052 8.34107C1.22284 7.63259 1.02195 6.83036 1.01793 6.02277C1.01258 4.6875 1.52284 3.43393 2.459 2.48973C3.39383 1.54554 4.64338 1.02321 5.97865 1.01786H6.00142C6.67106 1.01786 7.32061 1.14777 7.93267 1.40491C8.52999 1.65536 9.0657 2.01562 9.52642 2.47634C9.98579 2.93571 10.3474 3.47277 10.5978 4.07009C10.8577 4.68884 10.9876 5.34509 10.9849 6.02277C10.9769 7.3567 10.4532 8.60625 9.51034 9.54107Z" />
</svg>
