<svg width="10" height="10" viewBox="0 0 10 10" fill="none" xmlns="http://www.w3.org/2000/svg">
<path d="M3.3794 1.36926C3.36869 1.28086 3.26021 1.24336 3.19726 1.30631L2.61199 1.89158L0.821366 0.102292C0.801229 0.0823525 0.774036 0.071167 0.745697 0.071167C0.717358 0.071167 0.690164 0.0823525 0.670027 0.102292L0.10217 0.66881C0.0822304 0.688947 0.0710449 0.716141 0.0710449 0.74448C0.0710449 0.772818 0.0822304 0.800012 0.10217 0.820149L1.89279 2.61077L1.30485 3.19872C1.29069 3.21295 1.2808 3.23087 1.27632 3.25045C1.27184 3.27002 1.27294 3.29045 1.2795 3.30943C1.28606 3.32841 1.29781 3.34516 1.31342 3.35779C1.32903 3.37042 1.34787 3.37841 1.3678 3.38086L3.51333 3.63399C3.58163 3.64202 3.64056 3.58444 3.63253 3.51479L3.3794 1.36926ZM3.51467 6.36747L1.3678 6.6206C1.2794 6.63131 1.2419 6.73979 1.30485 6.80274L1.89279 7.39068L0.10217 9.17863C0.0822304 9.19877 0.0710449 9.22596 0.0710449 9.2543C0.0710449 9.28264 0.0822304 9.30983 0.10217 9.32997L0.670027 9.89649C0.711545 9.93801 0.779849 9.93801 0.821366 9.89649L2.61199 8.1072L3.19726 8.69247C3.21149 8.70663 3.22941 8.71652 3.24898 8.721C3.26855 8.72548 3.28899 8.72438 3.30797 8.71782C3.32694 8.71126 3.3437 8.69951 3.35633 8.6839C3.36896 8.66829 3.37695 8.64945 3.3794 8.62952L3.63253 6.48533C3.64056 6.41702 3.58297 6.35943 3.51467 6.36747ZM6.48521 3.63265L8.63208 3.37952C8.72047 3.36881 8.75797 3.26033 8.69503 3.19738L8.10708 2.61077L9.89771 0.821488C9.93922 0.779971 9.93922 0.711667 9.89771 0.670149L9.32985 0.103631C9.30971 0.0836917 9.28252 0.0725064 9.25418 0.0725064C9.22584 0.0725064 9.19865 0.0836917 9.17851 0.103631L7.38788 1.89158L6.80262 1.30631C6.78838 1.29215 6.77046 1.28226 6.75089 1.27778C6.73132 1.2733 6.71088 1.2744 6.69191 1.28096C6.67293 1.28752 6.65618 1.29927 6.64355 1.31488C6.63092 1.33049 6.62292 1.34933 6.62047 1.36926L6.36735 3.51345C6.35931 3.5831 6.4169 3.64069 6.48521 3.63265ZM8.10708 7.38935L8.69503 6.8014C8.70919 6.78717 8.71907 6.76925 8.72355 6.74967C8.72804 6.7301 8.72693 6.70967 8.72038 6.69069C8.71382 6.67171 8.70207 6.65496 8.68646 6.64233C8.67085 6.6297 8.65201 6.62171 8.63208 6.61926L6.48654 6.36613C6.41824 6.3581 6.35931 6.41569 6.36735 6.48533L6.62047 8.63086C6.63119 8.71926 6.73967 8.75676 6.80262 8.69381L7.38788 8.10854L9.17851 9.89783C9.22003 9.93935 9.28833 9.93935 9.32985 9.89783L9.89771 9.33131C9.93922 9.28979 9.93922 9.22149 9.89771 9.17997L8.10708 7.38935Z" />
</svg>
